<svg id="Layer_1" data-name="Layer 1" xmlns="http://www.w3.org/2000/svg" height="40" width="40" viewBox="0 0 913.93 924"><defs><style>.cls-1{opacity:0.31;}.cls-2{fill:#fff;fill-rule:evenodd;}</style></defs><title>prodAggButtonDisabbled</title><g id="noun_aggregate-arrow_2887837" data-name="noun aggregate-arrow 2887837" class="cls-1"><path id="Shape" class="cls-2" d="M804.85,470.63c-52.87,0-98.19,40.29-108.26,90.64H646.24c-90.64,0-163.65-75.53-163.65-168.68V95.5l95.67,113.29a27.18,27.18,0,0,0,17.62,7.56c5,0,10.07-2.52,15.11-5,10.07-7.55,10.07-22.66,2.52-30.21L480.07,25H449.86L316.42,181.1c-7.56,10.07-7.56,22.66,2.51,30.21,0,2.52,5,5,10.08,5s12.58-2.52,15.1-7.56L439.79,95.5V392.59c0,93.15-73,168.68-163.66,168.68H225.78c-10.07-52.87-55.39-90.64-108.26-90.64C57.09,470.63,6.74,521,6.74,583.93,9.26,644.36,59.61,694.71,120,694.71c52.87,0,98.19-40.28,108.26-90.64h50.35c68,0,125.89-32.73,163.65-83.08V724.92C392,735,354.18,780.31,354.18,835.7,354.18,898.65,404.54,949,465,949s110.78-50.35,110.78-113.3c0-55.39-37.76-100.71-88.12-110.78V521c37.77,50.35,98.19,83.08,163.65,83.08h50.36C711.7,657,757,694.71,809.89,694.71c60.42,0,110.78-50.35,110.78-113.3C915.63,521,865.28,470.63,804.85,470.63ZM125.07,651.91c-37.76,0-68-30.21-68-70.5s30.22-70.49,68-70.49,68,30.21,68,70.49S162.84,651.91,125.07,651.91ZM530.42,830.67c0,37.76-30.21,70.49-68,70.49s-68-30.21-68-70.49c0-37.77,30.21-70.5,68-70.5S530.42,790.38,530.42,830.67Zm284.5-178.76c-37.76,0-68-30.21-68-70.5,0-37.76,30.21-70.49,68-70.49s68,30.21,68,70.49C885.42,619.18,852.69,651.91,814.92,651.91Z" transform="translate(-6.74 -25)"/></g></svg>