<svg id="Layer_1" data-name="Layer 1" xmlns="http://www.w3.org/2000/svg" height="40" width="40"  viewBox="0 0 903.25 791"><defs><style>.cls-1{fill:#fff;fill-rule:evenodd;}</style></defs><title>prodAggButton</title><g id="noun_aggregate-arrow_2887837" data-name="noun aggregate-arrow 2887837"><path id="Shape" class="cls-1" d="M778.48,393c-52.52.5-97.27,33.24-106.7,78.08H621.92c-90.52-1.18-163-65.51-162.29-144V71.38l95.48,97.33a22.12,22.12,0,0,0,15.7,6.27,23.15,23.15,0,0,0,14-4.54c8.74-6.89,9.63-18.56,2-26.39L454.64,9.08h0V8H438.19V9.08h0l-132.14,135c-7.63,7.83-6.75,19.5,2,26.39A23.58,23.58,0,0,0,338,168.71L433.2,71.38V327.05c.83,78.71-71.83,143.2-162.55,144.27H220.79c-11.91-52.39-70.51-86.48-130.89-76.15S-9.78,456.35,2.13,508.74,72.64,595.22,133,584.89c44.35-7.59,79-37.67,87.77-76.15h49.86c64.18-.26,124.44-26.8,162.55-71.6V611.7c-59.05,10-97.54,59.7-86,110.93S416,807.25,475.08,797.22s97.54-59.7,86-110.93c-8.51-37.72-42.5-67.2-86-74.59V437.14c38.11,44.8,98.37,71.34,162.55,71.6h49.86c13.22,51,71.63,83.14,130.47,71.67s95.83-62.15,82.61-113.2c-11.18-43.2-55.35-73.91-106.38-74Z" transform="translate(0 -8)"/></g></svg>